{"title":"Red Cliff.2008.BRRip-Xvid-720p-ToPKaT","uid":5498011,"size":3982727479,"categoryP":"video","categoryS":"hd___movies","magnet":"?xt=urn:btih:3d8a15673238f1e1337527599b46083f89666f5e&amp;dn=Red+Cliff.2008.BRRip-Xvid-720p-ToPKaT&amp;tr=udp%3A%2F%2Ftracker.openbittorrent.com%3A80&amp;tr=udp%3A%2F%2Fopen.demonii.com%3A1337&amp;tr=udp%3A%2F%2Ftracker.coppersurfer.tk%3A6969&amp;tr=udp%3A%2F%2Fexodus.desync.com%3A6969","seeders":0,"leechers":1,"uploader":"TvTeam","files":4,"time":1271379762,"description":". \n &lt;a href=&quot;\nhttp://www.torrentday.com&quot; rel=&quot;nofollow&quot; target=&quot;_NEW&quot;&gt;\nhttp://www.torrentday.com&lt;/a&gt;   -    Your Key To The Scene.\n\nNow TvTeam with [No-RAR] Releases.\n\n(((((((((((((= Enjoy No RAR releases =))))))))))))))))))))\n\n...................................NFO:....................................\n\n                               Red Cliff.2008.BRRip-Xvid-720p-ToPKaT\n\n\nIn the early third century, the land of Wu is invaded by the warlord Cao Cao and his million soldiers. The ruler of Wu, Sun Quan, calls on the rival warlord Liu Bei for help, but their two armies are still badly outnumbered. However, the Wu strategist Zhou Yu sees that Cao Cao's army is unused to battling on the sea, which may just give them a chance if they can exploit this weakness properly.\n\n\nDirector:John Woo\nWriters:John Woo (screenplay) &amp;\nKhan Chan\nRelease Date:12 June 2009 (UK) \nGenre:Action | Adventure | Drama | History | War \nRated R for sequences of epic warfare.\nParents Guide:Add content advisory for parents\nRuntime: UK:148 min\nCountry:China\nLanguage:Mandarin\nHardcoded English Subtitles\nColor:Color\nAspect Ratio:2.35 : 1 \n\nTony Leung Chiu Wai\t ... \tZhou Yu (as Tony Leung)\n\tTakeshi Kaneshiro\t... \tZhuge Liang\n\tFengyi Zhang\t... \tCao Cao\n\tChen Chang\t... \tSun Quan\n\n\tWei Zhao\t... \tSun Shangxiang\n\tJun Hu\t... \tZhao Yun\n\tShido Nakamura\t... \tGan Xing (as Shidou Nakamura)\n\tChiling Lin\t... \tXiao Qiao (as Chi-Ling Lin)\n\tYong You\t... \tLiu Bei\n\tYong Hou\t... \tLu Su\n\tDawei Tong\t... \tSun Shucai\n\tJia Song\t... \tLi Ji\n\tBa Sen Zha Bu\t... \tGuan Yu\n\tJinsheng Zang\t... \tZhang Fei\n\tShan Zhang\t... \tHuang Gai \n.................................................\nSource = Red.Cliff.2008.PROPER.720p.BluRay.x264-CiNEFiLE    8GB\n\nFormat                           : AVI\nFormat/Info                      : Audio Video Interleave\nFormat profile                   : OpenDML\nFile size                        : 3.71 GiB\nDuration                         : 2h 25mn\nOverall bit rate                 : 3 653 Kbps\nWriting application              : VirtualDubMod 1.5.10.3 | www.virtualdub-fr.org || (build 2550/release)\nWriting library                  : VirtualDubMod build 2550/release\n\nVideo\nID                               : 0\nFormat                           : MPEG-4 Visual\nFormat profile                   : Advanced Simple@L5\nFormat settings, BVOP            : Yes\nFormat settings, QPel            : No\nFormat settings, GMC             : No warppoints\nCodec ID                         : XVID\nCodec ID/Hint                    : XviD\nDuration                         : 2h 25mn\nBit rate                         : 3 004 Kbps\nWidth                            : 1 280 pixels\nHeight                           : 544 pixels\nDisplay aspect ratio             : 2.35:1\nFrame rate                       : 24.000 fps\nResolution                       : 8 bits\nColorimetry                      : 4:2:0\nScan type                        : Progressive\nBits/(Pixel*Frame)               : 0.180\nStream size                      : 3.05 GiB (82%)\nWriting library                  : XviD 1.2.1 (UTC 2008-12-04)\n\nAudio\nID                               : 1\nFormat                           : AC-3\nFormat/Info                      : Audio Coding 3\nCodec ID                         : 2000\nDuration                         : 2h 25mn\nBit rate mode                    : Constant\nBit rate                         : 640 Kbps\nChannel(s)                       : 6 channels\nChannel positions                : Front: L C R, Surround: L R, LFE\nSampling rate                    : 48.0 KHz\nStream size                      : 665 MiB (18%)\nAlignment                        : Split accross interleaves\nInterleave, duration             : 42 ms (1.00 video frame)\nInterleave, preload duration     : 500 m","torrent":{"xt":"urn:btih:3d8a15673238f1e1337527599b46083f89666f5e","amp;dn":"Red+Cliff.2008.BRRip-Xvid-720p-ToPKaT","amp;tr":["udp%3A%2F%2Ftracker.openbittorrent.com%3A80","udp%3A%2F%2Fopen.demonii.com%3A1337","udp%3A%2F%2Ftracker.coppersurfer.tk%3A6969","udp%3A%2F%2Fexodus.desync.com%3A6969"],"infoHash":"3d8a15673238f1e1337527599b46083f89666f5e","infoHashBuffer":{"type":"Buffer","data":[61,138,21,103,50,56,241,225,51,117,39,89,155,70,8,63,137,102,111,94]},"announce":[],"urlList":[]}}